<?xml version="1.0" encoding="UTF-8" standalone="no"?>
<!DOCTYPE svg PUBLIC "-//W3C//DTD SVG 1.1//EN" "http://www.w3.org/Graphics/SVG/1.1/DTD/svg11.dtd">
<svg width="100%" height="100%" viewBox="0 0 2550 3300" version="1.1" xmlns="http://www.w3.org/2000/svg" xmlns:xlink="http://www.w3.org/1999/xlink" xml:space="preserve" xmlns:serif="http://www.serif.com/" style="fill-rule:evenodd;clip-rule:evenodd;stroke-linejoin:round;stroke-miterlimit:2;">
    <g id="Background" transform="matrix(1.02163,0,0,0.994884,127.704,203.92)">
        <rect x="-125" y="-205" width="2496" height="3317" style="fill:white;"/>
    </g>
    <g id="Contour" transform="matrix(9.3645,0,0,9.86542,207.289,150.457)">
        <path d="M0,304L0,0L228,0L228,304L114,228L0,304Z"/>
    </g>
    <g id="Cell-6" serif:id="Cell 6" transform="matrix(8.92894,0,0,9.86542,234.523,136.921)">
        <rect x="51" y="137" width="43" height="41" style="fill:white;"/>
    </g>
    <g id="Cell-5" serif:id="Cell 5" transform="matrix(8.92894,0,0,9.86542,1021.14,-277.426)">
        <rect x="51" y="137" width="43" height="41" style="fill:white;"/>
    </g>
    <g id="Cell-4" serif:id="Cell 4" transform="matrix(8.92894,0,0,9.86542,627.832,-277.426)">
        <rect x="51" y="137" width="43" height="41" style="fill:white;"/>
    </g>
    <g id="Cell-3-MarkerValue-1" serif:id="Cell 3 MarkerValue 1" transform="matrix(8.92894,0,0,9.86542,233.576,-277.426)">
        <rect x="51" y="137" width="43" height="41" style="fill:white;"/>
    </g>
    <g id="CenterPoint" transform="matrix(2.7875,0,0,2.93661,-1862.62,-1505.1)">
        <circle cx="1125.5" cy="1125.5" r="1.5" style="fill:rgb(241,0,0);"/>
    </g>
    <g id="CenterAlignVertical" transform="matrix(1.06755,0,0,1.12466,209.424,674.127)">
        <rect x="997" y="957" width="2" height="92" style="fill:rgb(241,0,0);"/>
    </g>
    <g id="AlignVertical_Helper_Top" transform="matrix(1.06755,0,0,1.12466,209.424,-1076.3)">
        <rect x="997" y="957" width="2" height="92" style="fill:rgb(241,0,0);"/>
    </g>
    <g id="AlignVertical_Helper_Bottom" transform="matrix(1.06755,0,0,1.12466,209.424,2120.23)">
        <rect x="997" y="957" width="2" height="92" style="fill:rgb(241,0,0);"/>
    </g>
    <g id="CenterAlignHorizontal" transform="matrix(6.53688e-17,1.12466,-1.06755,6.88654e-17,2345.6,677.501)">
        <rect x="997" y="957" width="2" height="92" style="fill:rgb(241,0,0);"/>
    </g>
    <g id="AlignHorizontal_Helper_Left" transform="matrix(6.53688e-17,1.12466,-1.06755,6.88654e-17,1119.86,677.639)">
        <rect x="997" y="957" width="2" height="92" style="fill:rgb(241,0,0);"/>
    </g>
    <g id="AlignHorizontal_Helper_Right" transform="matrix(6.53688e-17,1.12466,-1.06755,6.88654e-17,3571.49,677.639)">
        <rect x="997" y="957" width="2" height="92" style="fill:rgb(241,0,0);"/>
    </g>
    <g transform="matrix(1,0,0,1,1234.5,3081.15)">
        <text id="ID_1" x="0px" y="0px" style="font-family:'ArialMT', 'Arial', sans-serif;font-size:144px;fill:rgb(184,184,184);">1</text>
    </g>
</svg>
