<?xml version="1.0" encoding="UTF-8" standalone="no"?>
<!DOCTYPE svg PUBLIC "-//W3C//DTD SVG 1.1//EN" "http://www.w3.org/Graphics/SVG/1.1/DTD/svg11.dtd">
<svg width="100%" height="100%" viewBox="0 0 2481 3308" version="1.1" xmlns="http://www.w3.org/2000/svg" xmlns:xlink="http://www.w3.org/1999/xlink" xml:space="preserve" xmlns:serif="http://www.serif.com/" style="fill-rule:evenodd;clip-rule:evenodd;stroke-linejoin:round;stroke-miterlimit:2;">
    <g id="Background" transform="matrix(0.993716,0,0,0.997011,124.214,204.387)">
        <rect x="-125" y="-205" width="2496" height="3317" style="fill:white;"/>
    </g>
    <g id="Contour" transform="matrix(10.8786,0,0,10.8786,0,0)">
        <path d="M0,304L0,0L228,0L228,304L114,228L0,304Z"/>
    </g>
    <g id="Cell-8" serif:id="Cell 8" transform="matrix(10.3726,0,0,10.8786,945.437,-14.9254)">
        <rect x="51" y="137" width="43" height="41" style="fill:white;"/>
    </g>
    <g id="Cell-7" serif:id="Cell 7" transform="matrix(10.3726,0,0,10.8786,488.537,-14.9254)">
        <rect x="51" y="137" width="43" height="41" style="fill:white;"/>
    </g>
    <g id="Cell-6" serif:id="Cell 6" transform="matrix(10.3726,0,0,10.8786,31.6367,-14.9254)">
        <rect x="51" y="137" width="43" height="41" style="fill:white;"/>
    </g>
    <g id="Cell-5" serif:id="Cell 5" transform="matrix(10.3726,0,0,10.8786,945.437,-471.826)">
        <rect x="51" y="137" width="43" height="41" style="fill:white;"/>
    </g>
    <g id="Cell-4" serif:id="Cell 4" transform="matrix(10.3726,0,0,10.8786,488.537,-471.826)">
        <rect x="51" y="137" width="43" height="41" style="fill:white;"/>
    </g>
    <g id="Cell-3-MarkerValue-1" serif:id="Cell 3 MarkerValue 1" transform="matrix(10.3726,0,0,10.8786,30.5369,-471.826)">
        <rect x="51" y="137" width="43" height="41" style="fill:white;"/>
    </g>
    <g id="Cell-2-MarkerValue-2" serif:id="Cell 2 MarkerValue 2" transform="matrix(10.3726,0,0,10.8786,945.437,-931.826)">
        <rect x="51" y="137" width="43" height="41" style="fill:white;"/>
    </g>
    <g id="Cell-1-MarkerValue-4" serif:id="Cell 1 MarkerValue 4" transform="matrix(10.3726,0,0,10.8786,488.537,-931.826)">
        <rect x="51" y="137" width="43" height="41" style="fill:white;"/>
    </g>
    <g id="Cell-0-MarkerValue-8" serif:id="Cell 0 MarkerValue 8" transform="matrix(10.3726,0,0,10.8786,30.5369,-931.826)">
        <rect x="51" y="137" width="43" height="41" style="fill:white;"/>
    </g>
    <g id="CenterPoint" transform="matrix(3.23819,0,0,3.23819,-2404.58,-1825.58)">
        <circle cx="1125.5" cy="1125.5" r="1.5" style="fill:rgb(241,0,0);"/>
    </g>
    <g id="CenterAlignVertical" transform="matrix(1.24016,0,0,1.24016,2.48031,577.45)">
        <rect x="997" y="957" width="2" height="92" style="fill:rgb(241,0,0);"/>
    </g>
    <g id="CenterAlighHorizontal" transform="matrix(7.59377e-17,1.24016,-1.24016,7.59377e-17,2484.04,581.171)">
        <rect x="997" y="957" width="2" height="92" style="fill:rgb(241,0,0);"/>
    </g>
</svg>
