<?xml version="1.0" encoding="UTF-8" standalone="no"?>
<!DOCTYPE svg PUBLIC "-//W3C//DTD SVG 1.1//EN" "http://www.w3.org/Graphics/SVG/1.1/DTD/svg11.dtd">
<svg width="100%" height="100%" viewBox="0 0 2480 3507" version="1.1" xmlns="http://www.w3.org/2000/svg" xmlns:xlink="http://www.w3.org/1999/xlink" xml:space="preserve" xmlns:serif="http://www.serif.com/" style="fill-rule:evenodd;clip-rule:evenodd;stroke-linejoin:round;stroke-miterlimit:2;">
    <g id="Background" transform="matrix(0.993716,0,0,1.05728,124.214,216.743)">
        <rect x="-125" y="-205" width="2496" height="3317" style="fill:white;"/>
    </g>
    <g id="Contour" transform="matrix(9.3645,0,0,9.86542,172.447,253.957)">
        <path d="M0,304L0,0L228,0L228,304L114,228L0,304Z"/>
    </g>
    <g id="Cell-8" serif:id="Cell 8" transform="matrix(8.92894,0,0,9.86542,986.298,240.421)">
        <rect x="51" y="137" width="43" height="41" style="fill:white;"/>
    </g>
    <g id="Cell-7" serif:id="Cell 7" transform="matrix(8.92894,0,0,9.86542,592.989,240.421)">
        <rect x="51" y="137" width="43" height="41" style="fill:white;"/>
    </g>
    <g id="Cell-6" serif:id="Cell 6" transform="matrix(8.92894,0,0,9.86542,199.68,240.421)">
        <rect x="51" y="137" width="43" height="41" style="fill:white;"/>
    </g>
    <g id="Cell-5" serif:id="Cell 5" transform="matrix(8.92894,0,0,9.86542,986.298,-173.926)">
        <rect x="51" y="137" width="43" height="41" style="fill:white;"/>
    </g>
    <g id="Cell-4" serif:id="Cell 4" transform="matrix(8.92894,0,0,9.86542,592.989,-173.926)">
        <rect x="51" y="137" width="43" height="41" style="fill:white;"/>
    </g>
    <g id="Cell-3-MarkerValue-1" serif:id="Cell 3 MarkerValue 1" transform="matrix(8.92894,0,0,9.86542,198.734,-173.926)">
        <rect x="51" y="137" width="43" height="41" style="fill:white;"/>
    </g>
    <g id="Cell-2-MarkerValue-2" serif:id="Cell 2 MarkerValue 2" transform="matrix(8.92894,0,0,9.86542,986.298,-591.085)">
        <rect x="51" y="137" width="43" height="41" style="fill:white;"/>
    </g>
    <g id="Cell-1-MarkerValue-4" serif:id="Cell 1 MarkerValue 4" transform="matrix(8.92894,0,0,9.86542,592.989,-591.085)">
        <rect x="51" y="137" width="43" height="41" style="fill:white;"/>
    </g>
    <g id="Cell-0-MarkerValue-8" serif:id="Cell 0 MarkerValue 8" transform="matrix(8.92894,0,0,9.86542,198.734,-591.085)">
        <rect x="51" y="137" width="43" height="41" style="fill:white;"/>
    </g>
    <g id="CenterPoint" transform="matrix(2.7875,0,0,2.93661,-1897.47,-1401.6)">
        <circle cx="1125.5" cy="1125.5" r="1.5" style="fill:rgb(241,0,0);"/>
    </g>
    <g id="CenterAlignVertical" transform="matrix(1.06755,0,0,1.12466,174.582,777.627)">
        <rect x="997" y="957" width="2" height="92" style="fill:rgb(241,0,0);"/>
    </g>
    <g id="AlignVertical_Helper_Top" transform="matrix(1.06755,0,0,1.12466,174.582,-1076.3)">
        <rect x="997" y="957" width="2" height="92" style="fill:rgb(241,0,0);"/>
    </g>
    <g id="AlignVertical_Helper_Bottom" transform="matrix(1.06755,0,0,1.12466,174.739,2327.23)">
        <rect x="997" y="957" width="2" height="92" style="fill:rgb(241,0,0);"/>
    </g>
    <g id="CenterAlignHorizontal" transform="matrix(6.53688e-17,1.12466,-1.06755,6.88654e-17,2310.76,781.001)">
        <rect x="997" y="957" width="2" height="92" style="fill:rgb(241,0,0);"/>
    </g>
    <g id="AlignHorizontal_Helper_Left" transform="matrix(6.53688e-17,1.12466,-1.06755,6.88654e-17,1119.86,781.139)">
        <rect x="997" y="957" width="2" height="92" style="fill:rgb(241,0,0);"/>
    </g>
    <g id="AlignHorizontal_Helper_Right" transform="matrix(6.53688e-17,1.12466,-1.06755,6.88654e-17,3501.65,781.139)">
        <rect x="997" y="957" width="2" height="92" style="fill:rgb(241,0,0);"/>
    </g>
</svg>
